<?xml version="1.0" standalone="no"?>
<!DOCTYPE svg PUBLIC "-//W3C//DTD SVG 20010904//EN"
 "http://www.w3.org/TR/2001/REC-SVG-20010904/DTD/svg10.dtd">
<svg version="1.0" xmlns="http://www.w3.org/2000/svg"
 width="400.000000pt" height="400.000000pt" viewBox="0 0 400.000000 400.000000"
 preserveAspectRatio="xMidYMid meet">

<g transform="translate(0.000000,400.000000) scale(0.100000,-0.100000)"
fill="#000000" stroke="none">
<path d="M3053 2882 c-13 -2 -28 -11 -35 -21 -12 -16 -41 -33 -63 -36 -5 0 -9
-7 -7 -14 1 -7 -2 -9 -8 -6 -6 4 -19 0 -28 -8 -9 -8 -28 -17 -42 -19 -15 -2
-30 -14 -40 -33 -8 -16 -16 -32 -17 -34 -2 -3 -40 -12 -108 -25 -85 -17 -297
-114 -380 -175 -27 -21 -76 -52 -107 -70 -32 -18 -90 -59 -130 -92 -89 -75
-133 -105 -223 -154 -38 -21 -96 -56 -129 -78 -32 -22 -104 -63 -160 -91 -205
-105 -292 -163 -353 -234 -63 -72 -432 -442 -658 -657 -133 -127 -226 -207
-462 -398 l-103 -82 0 -327 0 -328 793 0 c739 1 795 2 842 19 82 29 104 40
164 74 42 25 81 37 154 49 54 9 117 26 140 37 23 12 110 73 192 137 97 75 179
129 232 154 65 31 89 49 121 89 23 28 43 59 46 69 4 10 46 48 94 85 76 58 477
453 663 653 40 43 99 127 151 215 48 79 100 162 116 184 53 74 69 120 86 245
10 68 9 90 -1 110 -11 22 -13 23 -14 5 0 -11 -3 -29 -6 -40 -3 -11 -7 -39 -10
-62 -3 -24 -8 -43 -12 -43 -4 0 -17 -18 -30 -40 -12 -22 -26 -40 -31 -40 -5 0
-7 -6 -4 -13 2 -7 -9 -25 -26 -40 -16 -15 -30 -33 -30 -39 0 -8 -3 -9 -10 -2
-15 15 7 82 30 89 11 3 17 12 14 20 -3 7 3 16 15 20 36 11 23 24 -21 22 l-42
-2 -13 110 c-25 220 -34 277 -54 330 -38 103 -117 124 -225 59 -69 -41 -149
-102 -183 -138 -13 -14 -28 -23 -32 -20 -5 3 -9 -1 -9 -9 0 -19 -46 -61 -54
-48 -4 5 -2 12 4 16 6 4 7 11 4 17 -4 7 -2 8 4 4 16 -10 15 6 0 24 -7 8 -2 6
11 -5 l24 -20 -13 24 c-7 15 -8 21 -1 17 6 -4 11 -3 11 3 0 5 10 11 23 13 12
2 20 6 17 9 -3 3 2 14 10 25 14 18 14 18 -2 5 -21 -15 -24 -2 -5 18 10 11 8
11 -10 0 -18 -11 -25 -11 -35 -1 -8 8 -9 12 -1 12 8 0 12 24 11 72 -1 46 3 73
10 76 8 2 7 9 -4 19 -11 11 -14 26 -10 48 8 41 -12 62 -43 45 -19 -10 -21 -8
-20 17 0 15 3 22 6 16 2 -7 9 -13 15 -13 6 0 6 6 -2 15 -18 22 -80 20 -80 -2
0 -14 -2 -15 -12 -4 -11 10 -9 15 7 28 20 15 20 15 -1 9 -22 -7 -54 1 -54 13
0 3 23 7 51 8 58 3 72 10 46 24 -23 13 -22 26 4 34 17 6 18 9 7 23 -11 13 -11
15 4 9 12 -4 15 -2 11 9 -7 19 21 18 41 -1 19 -19 26 -19 26 1 0 9 6 14 13 11
7 -3 19 3 25 13 10 17 8 18 -26 17 -20 -1 -47 -3 -59 -5z m-43 -62 c0 -5 -5
-10 -11 -10 -5 0 -7 5 -4 10 3 6 8 10 11 10 2 0 4 -4 4 -10z m0 -130 c0 -5 -4
-10 -10 -10 -5 0 -10 5 -10 10 0 6 5 10 10 10 6 0 10 -4 10 -10z m428 -420 c6
-30 16 -119 23 -198 l12 -143 -42 -39 c-22 -21 -41 -43 -41 -49 0 -6 -7 -11
-15 -11 -8 0 -15 -7 -15 -15 0 -8 -7 -15 -15 -15 -9 0 -18 -7 -21 -15 -4 -8
-15 -15 -25 -15 -10 0 -19 -3 -19 -7 0 -14 -53 -33 -88 -33 -27 0 -42 8 -68
35 -18 19 -34 47 -36 63 -2 19 -9 28 -26 30 -21 3 -48 44 -43 65 1 5 -4 7 -11
4 -7 -2 -22 0 -33 6 -19 10 -19 10 0 19 18 8 18 8 -2 4 -13 -2 -23 1 -23 7 0
7 -5 4 -11 -5 -5 -10 -20 -23 -32 -30 -21 -10 -21 -10 -7 7 8 10 20 34 25 54
8 26 17 37 33 39 12 2 22 10 22 19 0 9 3 14 6 10 4 -3 13 1 21 9 14 13 17 13
29 -4 32 -47 107 -30 120 26 8 35 47 103 71 122 140 115 185 145 194 128 4 -7
12 -38 17 -68z m-431 -170 c-12 -17 -16 -18 -20 -6 -4 9 1 23 10 32 22 22 29
2 10 -26z m-53 -166 c3 -8 2 -12 -4 -9 -6 3 -10 1 -10 -4 0 -6 4 -11 9 -11 5
0 7 -9 4 -20 -6 -22 -23 -27 -24 -7 0 10 -2 10 -6 0 -6 -17 -23 -17 -23 0 0
10 36 62 46 66 1 1 5 -6 8 -15z m-154 -76 c0 -6 11 -26 25 -44 31 -41 34 -84
5 -84 -11 0 -20 -6 -21 -12 0 -7 -4 -4 -9 7 -7 15 -9 16 -9 4 -1 -9 8 -23 19
-30 29 -20 31 -61 3 -65 -16 -3 -24 3 -28 19 -8 26 -74 127 -93 142 -10 8 -8
15 11 30 51 43 97 59 97 33z m-90 -142 c0 -3 -4 -8 -10 -11 -5 -3 -10 -1 -10
4 0 6 5 11 10 11 6 0 10 -2 10 -4z m740 -40 c0 -3 -4 -8 -10 -11 -5 -3 -10 -1
-10 4 0 6 5 11 10 11 6 0 10 -2 10 -4z m-945 -36 c4 -6 1 -17 -5 -25 -6 -8 -9
-19 -5 -25 10 -17 25 -11 25 10 0 18 19 30 21 13 0 -5 3 -28 5 -52 7 -61 0
-75 -28 -59 -13 7 -28 11 -35 10 -17 -4 -38 38 -34 68 3 29 27 70 41 70 5 0
12 -5 15 -10z m235 -47 c0 -9 7 -24 16 -34 22 -24 7 -105 -19 -101 -19 3 -22
-15 -6 -38 8 -11 12 -12 16 -2 2 6 11 12 19 12 8 0 14 10 14 23 0 36 11 39 37
11 28 -30 31 -84 6 -106 -16 -15 -22 -14 -63 2 -37 15 -45 22 -45 44 -1 15 -6
30 -12 34 -12 8 -23 92 -11 92 3 0 9 -8 12 -17 3 -10 4 -6 2 9 -2 20 1 25 12
20 13 -4 14 2 8 37 -4 28 -3 40 4 36 5 -3 10 -13 10 -22z m530 -43 c0 -5 -7
-10 -16 -10 -8 0 -12 5 -9 10 3 6 10 10 16 10 5 0 9 -4 9 -10z m-93 -132 c-3
-8 -6 -5 -6 6 -1 11 2 17 5 13 3 -3 4 -12 1 -19z m-287 -43 c-7 -8 -17 -15
-22 -15 -11 0 14 29 26 30 5 0 3 -7 -4 -15z"/>
<path d="M3096 2312 c-3 -5 1 -9 9 -9 8 0 15 4 15 9 0 4 -4 8 -9 8 -6 0 -12
-4 -15 -8z"/>
<path d="M3059 2253 c-13 -16 -12 -17 4 -4 9 7 17 15 17 17 0 8 -8 3 -21 -13z"/>
<path d="M3792 2185 c0 -16 2 -22 5 -12 2 9 2 23 0 30 -3 6 -5 -1 -5 -18z"/>
</g>
</svg>
